<?xml version="1.0" encoding="UTF-8" standalone="no"?>
<!-- Created with Inkscape (http://www.inkscape.org/) -->

<svg
   width="180pt"
   height="160pt"
   viewBox="0 0 63.500001 56.444443"
   version="1.1"
   id="svg1"
   sodipodi:docname="correlation.svg"
   inkscape:version="1.3.2 (091e20e, 2023-11-25)"
   xmlns:inkscape="http://www.inkscape.org/namespaces/inkscape"
   xmlns:sodipodi="http://sodipodi.sourceforge.net/DTD/sodipodi-0.dtd"
   xmlns="http://www.w3.org/2000/svg"
   xmlns:svg="http://www.w3.org/2000/svg"
   xmlns:rdf="http://www.w3.org/1999/02/22-rdf-syntax-ns#"
   xmlns:cc="http://creativecommons.org/ns#"
   xmlns:dc="http://purl.org/dc/elements/1.1/">
  <title
     id="title1">Main figure</title>
  <sodipodi:namedview
     id="namedview1"
     pagecolor="#ffffff"
     bordercolor="#000000"
     borderopacity="0.25"
     inkscape:showpageshadow="false"
     inkscape:pageopacity="0.0"
     inkscape:pagecheckerboard="0"
     inkscape:deskcolor="#d1d1d1"
     inkscape:document-units="mm"
     inkscape:zoom="2.2614146"
     inkscape:cx="126.69061"
     inkscape:cy="118.28879"
     inkscape:window-width="1792"
     inkscape:window-height="1067"
     inkscape:window-x="0"
     inkscape:window-y="25"
     inkscape:window-maximized="0"
     inkscape:current-layer="layer1"
     borderlayer="false" />
  <defs
     id="defs1">
    <inkscape:path-effect
       effect="tiling"
       id="path-effect1"
       is_visible="true"
       lpeversion="1"
       unit="px"
       seed="1;1"
       lpesatellites=""
       num_rows="10"
       num_cols="10"
       gapx="0"
       gapy="0"
       offset="0"
       offset_type="false"
       scale="0"
       rotate="0"
       mirrorrowsx="false"
       mirrorrowsy="false"
       mirrorcolsx="false"
       mirrorcolsy="false"
       mirrortrans="false"
       shrink_interp="false"
       split_items="false"
       link_styles="false"
       interpolate_scalex="false"
       interpolate_scaley="true"
       interpolate_rotatex="false"
       interpolate_rotatey="true"
       random_scale="false"
       random_rotate="false"
       random_gap_y="false"
       random_gap_x="false"
       transformorigin="" />
    <linearGradient
       id="swatch17"
       inkscape:swatch="solid"
       inkscape:label="cosmic cobalt"
       inkscape:pinned="true"
       gradientTransform="translate(-14.679776,-1.4175602)">
      <stop
         style="stop-color:#332288;stop-opacity:1;"
         offset="0"
         id="stop17" />
    </linearGradient>
    <linearGradient
       id="swatch16"
       inkscape:swatch="solid"
       inkscape:label="dark raspberry"
       inkscape:pinned="true"
       gradientTransform="translate(-14.679776,-1.4175602)">
      <stop
         style="stop-color:#882255;stop-opacity:1;"
         offset="0"
         id="stop16" />
    </linearGradient>
    <linearGradient
       id="swatch15"
       inkscape:swatch="solid"
       inkscape:label="la salle green"
       inkscape:pinned="true"
       gradientTransform="translate(-29.359552,-2.8351201)">
      <stop
         style="stop-color:#117733;stop-opacity:1;"
         offset="0"
         id="stop15" />
    </linearGradient>
    <linearGradient
       id="swatch14"
       inkscape:swatch="solid"
       inkscape:label="blue"
       inkscape:pinned="true"
       gradientTransform="translate(-14.679776,-1.4175602)">
      <stop
         style="stop-color:#aa4499;stop-opacity:1;"
         offset="0"
         id="stop14" />
    </linearGradient>
    <linearGradient
       id="swatch13"
       inkscape:swatch="solid"
       inkscape:label="keppel"
       inkscape:pinned="true"
       gradientTransform="translate(-14.679776,-1.4175602)">
      <stop
         style="stop-color:#44aa99;stop-opacity:1;"
         offset="0"
         id="stop13" />
    </linearGradient>
    <linearGradient
       id="swatch12"
       inkscape:swatch="solid"
       inkscape:label="cinnamon satin"
       inkscape:pinned="true"
       gradientTransform="translate(-29.359552,-2.8351201)">
      <stop
         style="stop-color:#cc6677;stop-opacity:1;"
         offset="0"
         id="stop12" />
    </linearGradient>
    <linearGradient
       id="swatch11"
       inkscape:swatch="solid"
       inkscape:label="baby blue"
       inkscape:pinned="true"
       gradientTransform="translate(-29.359552,-2.8351201)">
      <stop
         style="stop-color:#88ccee;stop-opacity:1;"
         offset="0"
         id="stop11" />
    </linearGradient>
    <linearGradient
       id="swatch10"
       inkscape:swatch="solid"
       inkscape:label="straw"
       inkscape:pinned="true"
       gradientTransform="translate(30.619051,51.737432)">
      <stop
         style="stop-color:#ddcc77;stop-opacity:1;"
         offset="0"
         id="stop10" />
    </linearGradient>
    <linearGradient
       id="swatch9"
       inkscape:label="reddish purple"
       inkscape:pinned="true">
      <stop
         style="stop-color:#cc79a7;stop-opacity:0.2;"
         offset="0"
         id="stop9" />
    </linearGradient>
    <linearGradient
       id="swatch8"
       inkscape:label="vermillion"
       inkscape:pinned="true">
      <stop
         style="stop-color:#d55e00;stop-opacity:0.2;"
         offset="0"
         id="stop8" />
    </linearGradient>
    <linearGradient
       id="swatch7"
       inkscape:label="blue"
       inkscape:pinned="true">
      <stop
         style="stop-color:#0072b2;stop-opacity:0.2;"
         offset="0"
         id="stop7" />
    </linearGradient>
    <linearGradient
       id="swatch6"
       inkscape:label="yellow"
       inkscape:pinned="true">
      <stop
         style="stop-color:#f0e442;stop-opacity:0.25999999;"
         offset="0"
         id="stop6" />
    </linearGradient>
    <linearGradient
       id="swatch5"
       inkscape:label="bluish green"
       inkscape:pinned="true">
      <stop
         style="stop-color:#009e73;stop-opacity:0.2;"
         offset="0"
         id="stop5" />
    </linearGradient>
    <linearGradient
       id="swatch4"
       inkscape:label="sky blue"
       inkscape:pinned="true">
      <stop
         style="stop-color:#56b4e9;stop-opacity:0.2;"
         offset="0"
         id="stop4" />
    </linearGradient>
    <linearGradient
       id="swatch3"
       inkscape:label="orange"
       inkscape:pinned="true">
      <stop
         style="stop-color:#e69f00;stop-opacity:0.2;"
         offset="0"
         id="stop3" />
    </linearGradient>
    <linearGradient
       id="swatch2"
       inkscape:swatch="solid"
       inkscape:label="white"
       inkscape:pinned="true">
      <stop
         style="stop-color:#ffffff;stop-opacity:1;"
         offset="0"
         id="stop2" />
    </linearGradient>
    <linearGradient
       id="swatch1"
       inkscape:swatch="solid"
       inkscape:label="black"
       inkscape:pinned="true"
       gradientTransform="matrix(0.6609478,0,0,0.6609478,-44.943733,-32.649357)">
      <stop
         style="stop-color:#000000;stop-opacity:1;"
         offset="0"
         id="stop1" />
    </linearGradient>
    <inkscape:path-effect
       effect="tiling"
       id="path-effect1-0"
       is_visible="true"
       lpeversion="1"
       unit="px"
       seed="1;1"
       lpesatellites=""
       num_rows="3"
       num_cols="3"
       gapx="0"
       gapy="0"
       offset="0"
       offset_type="false"
       scale="0"
       rotate="0"
       mirrorrowsx="false"
       mirrorrowsy="false"
       mirrorcolsx="false"
       mirrorcolsy="false"
       mirrortrans="false"
       shrink_interp="false"
       split_items="false"
       link_styles="false"
       interpolate_scalex="false"
       interpolate_scaley="true"
       interpolate_rotatex="false"
       interpolate_rotatey="true"
       random_scale="false"
       random_rotate="false"
       random_gap_y="false"
       random_gap_x="false"
       transformorigin="" />
  </defs>
  <g
     inkscape:label="Layer 1"
     inkscape:groupmode="layer"
     id="layer1">
    <path
       style="font-variation-settings:normal;opacity:1;vector-effect:none;fill:none;fill-opacity:1;fill-rule:evenodd;stroke:#000000;stroke-width:0.140441;stroke-linecap:butt;stroke-linejoin:miter;stroke-miterlimit:4;stroke-dasharray:none;stroke-dashoffset:0;stroke-opacity:1;-inkscape-stroke:none;marker-start:none;marker-end:none;stop-color:#000000;stop-opacity:1"
       id="rect1"
       width="5.2022581"
       height="5.2022581"
       x="12.634056"
       y="19.508469"
       inkscape:path-effect="#path-effect1"
       sodipodi:type="rect"
       d="m 12.634056,19.508469 h 5.202258 v 5.202258 h -5.202258 z m 5.202258,0 h 5.202258 v 5.202258 h -5.202258 z m 5.202258,0 h 5.202258 v 5.202258 h -5.202258 z m 5.202258,0 h 5.202259 v 5.202258 H 28.24083 Z m 5.202259,0 h 5.202258 v 5.202258 h -5.202258 z m 5.202258,0 h 5.202258 v 5.202258 h -5.202258 z m 5.202258,0 h 5.202258 v 5.202258 h -5.202258 z m 5.202258,0 h 5.202258 v 5.202258 h -5.202258 z m 5.202258,0 h 5.202258 v 5.202258 h -5.202258 z m 5.202258,0 h 5.202258 v 5.202258 h -5.202258 z m -46.820323,5.202258 h 5.202258 v 5.202258 h -5.202258 z m 5.202258,0 h 5.202258 v 5.202258 h -5.202258 z m 5.202258,0 h 5.202258 v 5.202258 h -5.202258 z m 5.202258,0 h 5.202259 v 5.202258 H 28.24083 Z m 5.202259,0 h 5.202258 v 5.202258 h -5.202258 z m 5.202258,0 h 5.202258 v 5.202258 h -5.202258 z m 5.202258,0 h 5.202258 v 5.202258 h -5.202258 z m 5.202258,0 h 5.202258 v 5.202258 h -5.202258 z m 5.202258,0 h 5.202258 v 5.202258 h -5.202258 z m 5.202258,0 h 5.202258 v 5.202258 h -5.202258 z m -46.820323,5.202258 h 5.202258 v 5.202258 h -5.202258 z m 5.202258,0 h 5.202258 v 5.202258 h -5.202258 z m 5.202258,0 h 5.202258 v 5.202258 h -5.202258 z m 5.202258,0 h 5.202259 v 5.202258 H 28.24083 Z m 5.202259,0 h 5.202258 v 5.202258 h -5.202258 z m 5.202258,0 h 5.202258 v 5.202258 h -5.202258 z m 5.202258,0 h 5.202258 v 5.202258 h -5.202258 z m 5.202258,0 h 5.202258 v 5.202258 h -5.202258 z m 5.202258,0 h 5.202258 v 5.202258 h -5.202258 z m 5.202258,0 h 5.202258 v 5.202258 h -5.202258 z m -46.820323,5.202258 h 5.202258 v 5.202258 h -5.202258 z m 5.202258,0 h 5.202258 v 5.202258 h -5.202258 z m 5.202258,0 h 5.202258 v 5.202258 h -5.202258 z m 5.202258,0 h 5.202259 v 5.202258 H 28.24083 Z m 5.202259,0 h 5.202258 v 5.202258 h -5.202258 z m 5.202258,0 h 5.202258 v 5.202258 h -5.202258 z m 5.202258,0 h 5.202258 v 5.202258 h -5.202258 z m 5.202258,0 h 5.202258 v 5.202258 h -5.202258 z m 5.202258,0 h 5.202258 v 5.202258 h -5.202258 z m 5.202258,0 h 5.202258 v 5.202258 h -5.202258 z m -46.820323,5.202258 h 5.202258 v 5.202258 h -5.202258 z m 5.202258,0 h 5.202258 v 5.202258 h -5.202258 z m 5.202258,0 h 5.202258 v 5.202258 h -5.202258 z m 5.202258,0 h 5.202259 v 5.202258 H 28.24083 Z m 5.202259,0 h 5.202258 v 5.202258 h -5.202258 z m 5.202258,0 h 5.202258 v 5.202258 h -5.202258 z m 5.202258,0 h 5.202258 v 5.202258 h -5.202258 z m 5.202258,0 h 5.202258 v 5.202258 h -5.202258 z m 5.202258,0 h 5.202258 v 5.202258 h -5.202258 z m 5.202258,0 h 5.202258 v 5.202258 h -5.202258 z m -46.820323,5.202258 h 5.202258 v 5.202258 h -5.202258 z m 5.202258,0 h 5.202258 v 5.202258 h -5.202258 z m 5.202258,0 h 5.202258 v 5.202258 h -5.202258 z m 5.202258,0 h 5.202259 v 5.202258 H 28.24083 Z m 5.202259,0 h 5.202258 v 5.202258 h -5.202258 z m 5.202258,0 h 5.202258 v 5.202258 h -5.202258 z m 5.202258,0 h 5.202258 v 5.202258 h -5.202258 z m 5.202258,0 h 5.202258 v 5.202258 h -5.202258 z m 5.202258,0 h 5.202258 v 5.202258 h -5.202258 z m 5.202258,0 h 5.202258 v 5.202258 h -5.202258 z m -46.820323,5.202258 h 5.202258 v 5.202258 h -5.202258 z m 5.202258,0 h 5.202258 v 5.202258 h -5.202258 z m 5.202258,0 h 5.202258 v 5.202258 h -5.202258 z m 5.202258,0 h 5.202259 v 5.202258 H 28.24083 Z m 5.202259,0 h 5.202258 v 5.202258 h -5.202258 z m 5.202258,0 h 5.202258 v 5.202258 h -5.202258 z m 5.202258,0 h 5.202258 v 5.202258 h -5.202258 z m 5.202258,0 h 5.202258 v 5.202258 h -5.202258 z m 5.202258,0 h 5.202258 v 5.202258 h -5.202258 z m 5.202258,0 h 5.202258 v 5.202258 h -5.202258 z m -46.820323,5.202258 h 5.202258 v 5.202259 h -5.202258 z m 5.202258,0 h 5.202258 v 5.202259 h -5.202258 z m 5.202258,0 h 5.202258 v 5.202259 h -5.202258 z m 5.202258,0 h 5.202259 v 5.202259 H 28.24083 Z m 5.202259,0 h 5.202258 v 5.202259 h -5.202258 z m 5.202258,0 h 5.202258 v 5.202259 h -5.202258 z m 5.202258,0 h 5.202258 v 5.202259 h -5.202258 z m 5.202258,0 h 5.202258 v 5.202259 h -5.202258 z m 5.202258,0 h 5.202258 v 5.202259 h -5.202258 z m 5.202258,0 h 5.202258 v 5.202259 h -5.202258 z m -46.820323,5.202259 h 5.202258 v 5.202258 h -5.202258 z m 5.202258,0 h 5.202258 v 5.202258 h -5.202258 z m 5.202258,0 h 5.202258 v 5.202258 h -5.202258 z m 5.202258,0 h 5.202259 v 5.202258 H 28.24083 Z m 5.202259,0 h 5.202258 v 5.202258 h -5.202258 z m 5.202258,0 h 5.202258 v 5.202258 h -5.202258 z m 5.202258,0 h 5.202258 v 5.202258 h -5.202258 z m 5.202258,0 h 5.202258 v 5.202258 h -5.202258 z m 5.202258,0 h 5.202258 v 5.202258 h -5.202258 z m 5.202258,0 h 5.202258 v 5.202258 h -5.202258 z m -46.820323,5.202258 h 5.202258 v 5.202258 h -5.202258 z m 5.202258,0 h 5.202258 v 5.202258 h -5.202258 z m 5.202258,0 h 5.202258 v 5.202258 h -5.202258 z m 5.202258,0 h 5.202259 V 71.53105 H 28.24083 Z m 5.202259,0 h 5.202258 v 5.202258 h -5.202258 z m 5.202258,0 h 5.202258 v 5.202258 h -5.202258 z m 5.202258,0 h 5.202258 v 5.202258 h -5.202258 z m 5.202258,0 h 5.202258 v 5.202258 h -5.202258 z m 5.202258,0 h 5.202258 v 5.202258 h -5.202258 z m 5.202258,0 h 5.202258 v 5.202258 h -5.202258 z"
       transform="translate(-6.8953466,-17.297537)" />
    <path
       style="font-variation-settings:normal;vector-effect:none;fill:#ffffff;fill-opacity:1;fill-rule:evenodd;stroke:#000000;stroke-width:0.140441;stroke-linecap:butt;stroke-linejoin:miter;stroke-miterlimit:4;stroke-dasharray:none;stroke-dashoffset:0;stroke-opacity:1;-inkscape-stroke:none;marker-start:none;marker-end:none;stop-color:#000000"
       id="rect1-2"
       width="5.2022581"
       height="5.2022581"
       x="12.634056"
       y="19.508469"
       inkscape:path-effect="#path-effect1-0"
       sodipodi:type="rect"
       d="m 12.634056,19.508469 h 5.202258 v 5.202258 h -5.202258 z m 5.202258,0 h 5.202258 v 5.202258 h -5.202258 z m 5.202258,0 h 5.202258 v 5.202258 h -5.202258 z m -10.404516,5.202258 h 5.202258 v 5.202258 h -5.202258 z m 5.202258,0 h 5.202258 v 5.202258 h -5.202258 z m 5.202258,0 h 5.202258 v 5.202258 h -5.202258 z m -10.404516,5.202258 h 5.202258 v 5.202258 h -5.202258 z m 5.202258,0 h 5.202258 v 5.202258 h -5.202258 z m 5.202258,0 h 5.202258 v 5.202258 h -5.202258 z"
       transform="translate(0.74296182,0.91036574)" />
    <path
       style="font-variation-settings:normal;opacity:1;vector-effect:none;fill:none;fill-opacity:1;stroke:#000000;stroke-width:0.140441;stroke-linecap:butt;stroke-linejoin:miter;stroke-miterlimit:4;stroke-dasharray:none;stroke-dashoffset:0;stroke-opacity:1;-inkscape-stroke:none;marker-start:none;marker-end:none;stop-color:#000000;stop-opacity:1"
       d="m 13.377019,20.418834 2.762895,-2.601128"
       id="path5" />
    <path
       style="font-variation-settings:normal;opacity:1;vector-effect:none;fill:none;fill-opacity:1;stroke:#000000;stroke-width:0.140441;stroke-linecap:butt;stroke-linejoin:miter;stroke-miterlimit:4;stroke-dasharray:none;stroke-dashoffset:0;stroke-opacity:1;-inkscape-stroke:none;marker-start:none;marker-end:none;stop-color:#000000;stop-opacity:1"
       d="M 28.97755,20.418834 31.75,17.809522"
       id="path6" />
    <path
       style="font-variation-settings:normal;opacity:1;vector-effect:none;fill:none;fill-opacity:1;stroke:#000000;stroke-width:0.140441;stroke-linecap:butt;stroke-linejoin:miter;stroke-miterlimit:4;stroke-dasharray:none;stroke-dashoffset:0;stroke-opacity:1;-inkscape-stroke:none;marker-start:none;marker-end:none;stop-color:#000000;stop-opacity:1"
       d="m 28.970483,36.025609 2.767304,-2.60113"
       id="path7" />
    <rect
       style="font-variation-settings:normal;opacity:0.4;vector-effect:none;fill:url(#swatch1);fill-opacity:1;fill-rule:evenodd;stroke:#000000;stroke-width:0.140441;stroke-linecap:butt;stroke-linejoin:miter;stroke-miterlimit:4;stroke-dasharray:none;stroke-dashoffset:0;stroke-opacity:1;-inkscape-stroke:none;marker-start:none;marker-end:none;stop-color:#000000"
       id="rect7-37"
       width="5.2022581"
       height="5.2022595"
       x="26.54854"
       y="28.222223" />
    <rect
       style="font-variation-settings:normal;opacity:0.4;vector-effect:none;fill:url(#swatch15);fill-opacity:1;fill-rule:evenodd;stroke:#000000;stroke-width:0.140441;stroke-linecap:butt;stroke-linejoin:miter;stroke-miterlimit:4;stroke-dasharray:none;stroke-dashoffset:0;stroke-opacity:1;-inkscape-stroke:none;marker-start:none;marker-end:none;stop-color:#000000"
       id="rect7-37-8"
       width="5.2022581"
       height="5.2022595"
       x="26.54854"
       y="22.984835" />
    <rect
       style="font-variation-settings:normal;opacity:0.4;vector-effect:none;fill:url(#swatch12);fill-opacity:1;fill-rule:evenodd;stroke:#000000;stroke-width:0.140441;stroke-linecap:butt;stroke-linejoin:miter;stroke-miterlimit:4;stroke-dasharray:none;stroke-dashoffset:0;stroke-opacity:1;-inkscape-stroke:none;marker-start:none;marker-end:none;stop-color:#000000"
       id="rect7-37-85"
       width="5.2022581"
       height="5.2022595"
       x="26.547739"
       y="17.817183" />
    <rect
       style="font-variation-settings:normal;opacity:0.4;vector-effect:none;fill:url(#swatch11);fill-opacity:1;fill-rule:evenodd;stroke:#000000;stroke-width:0.140441;stroke-linecap:butt;stroke-linejoin:miter;stroke-miterlimit:4;stroke-dasharray:none;stroke-dashoffset:0;stroke-opacity:1;-inkscape-stroke:none;marker-start:none;marker-end:none;stop-color:#000000"
       id="rect7-37-1"
       width="5.2022581"
       height="5.2022595"
       x="21.34548"
       y="17.817183" />
    <rect
       style="font-variation-settings:normal;opacity:0.4;vector-effect:none;fill:url(#swatch10);fill-opacity:1;fill-rule:evenodd;stroke:#000000;stroke-width:0.140441;stroke-linecap:butt;stroke-linejoin:miter;stroke-miterlimit:4;stroke-dasharray:none;stroke-dashoffset:0;stroke-opacity:1;-inkscape-stroke:none;marker-start:none;marker-end:none;stop-color:#000000"
       id="rect7-37-4"
       width="5.2022581"
       height="5.2022595"
       x="16.143223"
       y="17.817183" />
    <rect
       style="font-variation-settings:normal;opacity:1;vector-effect:none;fill:url(#swatch10);fill-opacity:1;fill-rule:evenodd;stroke:#000000;stroke-width:0.140441;stroke-linecap:butt;stroke-linejoin:miter;stroke-miterlimit:4;stroke-dasharray:none;stroke-dashoffset:0;stroke-opacity:1;-inkscape-stroke:none;marker-start:none;marker-end:none;stop-color:#000000;stop-opacity:1"
       id="rect7"
       width="5.2022581"
       height="5.2022595"
       x="13.377017"
       y="20.418833" />
    <rect
       style="font-variation-settings:normal;vector-effect:none;fill:url(#swatch11);fill-opacity:1;fill-rule:evenodd;stroke:#000000;stroke-width:0.140441;stroke-linecap:butt;stroke-linejoin:miter;stroke-miterlimit:4;stroke-dasharray:none;stroke-dashoffset:0;stroke-opacity:1;-inkscape-stroke:none;marker-start:none;marker-end:none;stop-color:#000000"
       id="rect7-0"
       width="5.2022581"
       height="5.2022595"
       x="18.579275"
       y="20.418833" />
    <rect
       style="font-variation-settings:normal;vector-effect:none;fill:url(#swatch12);fill-opacity:1;fill-rule:evenodd;stroke:#000000;stroke-width:0.140441;stroke-linecap:butt;stroke-linejoin:miter;stroke-miterlimit:4;stroke-dasharray:none;stroke-dashoffset:0;stroke-opacity:1;-inkscape-stroke:none;marker-start:none;marker-end:none;stop-color:#000000"
       id="rect7-6"
       width="5.2022581"
       height="5.2022595"
       x="23.777117"
       y="20.418833" />
    <rect
       style="font-variation-settings:normal;vector-effect:none;fill:url(#swatch13);fill-opacity:1;fill-rule:evenodd;stroke:#000000;stroke-width:0.140441;stroke-linecap:butt;stroke-linejoin:miter;stroke-miterlimit:4;stroke-dasharray:none;stroke-dashoffset:0;stroke-opacity:1;-inkscape-stroke:none;marker-start:none;marker-end:none;stop-color:#000000"
       id="rect7-3"
       width="5.2022581"
       height="5.2022595"
       x="13.377017"
       y="25.621092" />
    <rect
       style="font-variation-settings:normal;vector-effect:none;fill:url(#swatch14);fill-opacity:1;fill-rule:evenodd;stroke:#000000;stroke-width:0.140441;stroke-linecap:butt;stroke-linejoin:miter;stroke-miterlimit:4;stroke-dasharray:none;stroke-dashoffset:0;stroke-opacity:1;-inkscape-stroke:none;marker-start:none;marker-end:none;stop-color:#000000"
       id="rect7-9"
       width="5.2022581"
       height="5.2022595"
       x="18.579275"
       y="25.621092" />
    <rect
       style="font-variation-settings:normal;vector-effect:none;fill:url(#swatch15);fill-opacity:1;fill-rule:evenodd;stroke:#000000;stroke-width:0.140441;stroke-linecap:butt;stroke-linejoin:miter;stroke-miterlimit:4;stroke-dasharray:none;stroke-dashoffset:0;stroke-opacity:1;-inkscape-stroke:none;marker-start:none;marker-end:none;stop-color:#000000"
       id="rect7-30"
       width="5.2022581"
       height="5.2022595"
       x="23.777117"
       y="25.621092" />
    <rect
       style="font-variation-settings:normal;vector-effect:none;fill:url(#swatch16);fill-opacity:1;fill-rule:evenodd;stroke:#000000;stroke-width:0.140441;stroke-linecap:butt;stroke-linejoin:miter;stroke-miterlimit:4;stroke-dasharray:none;stroke-dashoffset:0;stroke-opacity:1;-inkscape-stroke:none;marker-start:none;marker-end:none;stop-color:#000000"
       id="rect7-5"
       width="5.2022581"
       height="5.2022595"
       x="13.377017"
       y="30.823353" />
    <rect
       style="font-variation-settings:normal;vector-effect:none;fill:url(#swatch17);fill-opacity:1;fill-rule:evenodd;stroke:#000000;stroke-width:0.140441;stroke-linecap:butt;stroke-linejoin:miter;stroke-miterlimit:4;stroke-dasharray:none;stroke-dashoffset:0;stroke-opacity:1;-inkscape-stroke:none;marker-start:none;marker-end:none;stop-color:#000000"
       id="rect7-2"
       width="5.2022581"
       height="5.2022595"
       x="18.579275"
       y="30.823353" />
    <rect
       style="font-variation-settings:normal;vector-effect:none;fill:url(#swatch1);fill-opacity:1;fill-rule:evenodd;stroke:#000000;stroke-width:0.140441;stroke-linecap:butt;stroke-linejoin:miter;stroke-miterlimit:4;stroke-dasharray:none;stroke-dashoffset:0;stroke-opacity:1;-inkscape-stroke:none;marker-start:none;marker-end:none;stop-color:#000000"
       id="rect7-25"
       width="5.2022581"
       height="5.2022595"
       x="23.777117"
       y="30.772182" />
  </g>
  <metadata
     id="metadata1">
    <rdf:RDF>
      <cc:Work
         rdf:about="">
        <dc:title>Main figure</dc:title>
      </cc:Work>
    </rdf:RDF>
  </metadata>
</svg>
